<svg xmlns="http://www.w3.org/2000/svg" id="Layer_1" data-name="Layer 1" viewBox="0 0 592.98 193.55" fill="currentColor"><defs><style>
      .cls-1 {
        fill: #6366f1; /* Using primary theme color instead of hardcoded blue */
      }
    </style></defs><polygon class="cls-1" points="0 0 32.33 45.94 141.65 45.94 49.77 70.61 57.43 80.82 157.39 44.24 0 0"></polygon><path d="M189.72,98.26h-24.67v70.61h24.67c11.49,0,19.14-3.4,22.97-10.21,2.13-3.4,3.4-7.23,4.25-11.49s1.28-9.36,1.28-15.31c0-11.91-2.13-20.42-5.96-25.95-4.25-4.68-11.49-7.66-22.55-7.66ZM205.88,143.35c-.43,2.98-1.28,5.53-2.13,8.08-2.13,5.1-6.81,7.66-13.61,7.66h-13.19v-50.62h13.19c6.81,0,11.06,1.7,13.19,5.53s3.4,9.78,3.4,18.29c-.43,4.25-.43,8.08-.85,11.06ZM205.88,143.35c-.43,2.98-1.28,5.53-2.13,8.08-2.13,5.1-6.81,7.66-13.61,7.66h-13.19v-50.62h13.19c6.81,0,11.06,1.7,13.19,5.53s3.4,9.78,3.4,18.29c-.43,4.25-.43,8.08-.85,11.06ZM285.86,123.79c5.96-3.83,11.91-6.38,17.44-7.23v11.06c-5.96,1.28-11.06,2.55-15.31,4.68l-2.13.85v36.16h-11.06v-51.9h11.06v6.38ZM246.72,116.13c-6.38,0-13.19.85-20.84,2.55l.43,8.08h3.4c6.81-.43,11.91-.85,16.59-.85,2.13,0,4.25.43,5.1,1.7,1.28,1.28,1.7,2.98,1.7,5.96v3.83l-13.19,1.28c-5.96.43-10.21,1.7-12.76,4.25-2.98,2.55-4.25,5.96-4.25,11.49,0,11.06,5.1,16.59,15.31,16.59,5.1,0,10.21-.85,14.89-2.98v2.13h11.06v-35.73c0-5.96-1.28-10.21-4.25-12.76-2.13-4.25-6.81-5.53-13.19-5.53ZM253.53,158.67l-1.7.43c-3.83,1.28-7.66,1.7-11.06,1.7-4.25,0-6.38-2.55-6.38-7.23s2.55-7.23,7.23-7.66l11.91-1.28v14.04ZM336.05,168.88c-4.68.85-8.08,1.28-10.63,1.28-5.96,0-9.78-1.28-11.91-3.83-2.13-2.55-3.4-7.66-3.4-15.31v-48.49h11.06v14.89h14.04v9.78h-14.04v22.55c0,4.25.43,6.81.85,8.51.43,1.28,2.13,2.13,4.68,2.13l8.51-.43.85,8.93ZM145.48,98.26h11.91l-19.57,70.61h-18.29l-19.57-70.61h11.91l16.16,60.4h.85l16.59-60.4Z"></path><g><path d="M385.4,169.3h-24.67v-71.46h24.67c16.16,0,24.25,11.49,24.25,34.88-.43,24.25-8.08,36.58-24.25,36.58ZM403.26,132.72c0-19.14-5.96-28.93-17.87-28.93h-18.72v59.98h18.72c11.91,0,17.87-10.63,17.87-31.05Z"></path><path d="M422.4,105.07v-7.66h5.53v7.66h-5.53ZM422.4,169.3v-51.47h5.53v51.47s-5.53,0-5.53,0Z"></path><path d="M479.4,176.96c0,5.96-1.7,10.21-5.1,12.76-3.4,2.55-8.93,3.83-16.59,3.83s-12.76-1.28-15.31-3.4c-2.98-2.13-4.25-6.38-4.25-12.34,0-2.98.43-5.1,1.7-6.81,1.28-1.7,3.4-3.83,5.96-5.96-1.7-1.28-2.55-3.4-2.55-6.81,0-1.28.85-3.4,2.13-6.38l.85-1.7c-5.53-2.13-8.08-7.66-8.08-15.31,0-11.49,5.96-17.44,17.44-17.44,3.4,0,6.38.43,8.93.85l1.28.43,14.04-.43v5.1h-9.78c2.13,2.55,3.4,6.38,3.4,12.34,0,5.53-1.28,9.78-4.25,12.34-2.98,2.55-7.66,3.83-14.04,3.83-1.7,0-3.4,0-5.1-.43-1.28,3.4-2.13,5.53-2.13,6.38,0,2.13.43,3.83,1.7,4.25s5.1.85,11.49.85,10.63.85,13.19,2.98c3.83,1.28,5.1,5.53,5.1,11.06ZM443.67,177.38c0,4.25.85,6.81,2.98,8.51s5.53,2.55,11.49,2.55c5.53,0,9.36-.85,11.91-2.55,2.55-1.7,3.4-4.68,3.4-8.51s-.85-6.38-2.55-7.66-5.1-1.7-10.21-1.7l-11.06-.43c-2.55,1.7-3.83,3.4-4.68,4.68-.85,1.28-1.28,2.98-1.28,5.1ZM444.52,134.42c0,4.25.85,7.66,2.55,9.36,1.7,1.7,4.68,2.55,9.36,2.55,4.25,0,7.23-.85,9.36-2.55,1.7-1.7,2.55-5.1,2.55-9.36,0-4.68-.85-7.66-2.55-9.36-1.7-1.7-4.68-2.98-9.36-2.98-4.25,0-7.23.85-9.36,2.98-1.7,1.7-2.55,4.68-2.55,9.36Z"></path><path d="M489.61,105.07v-7.66h5.53v7.66h-5.53ZM489.61,169.3v-51.47h5.53v51.47s-5.53,0-5.53,0Z"></path><path d="M534.7,123.36h-16.16v25.52c0,6.81.43,11.06,1.28,13.19.85,2.13,2.98,2.98,6.38,2.98l8.93-.85.43,5.1c-4.25.85-7.66.85-9.78.85-5.1,0-8.51-1.28-10.21-3.83-2.13-2.55-2.98-7.66-2.98-14.89v-28.08h-7.23v-5.53h7.23v-16.16h5.96v16.16h16.16v5.53Z"></path><path d="M587.45,169.3v-74.02h5.53v74.02h-5.53Z"></path></g><path d="M573.41,120.81c-2.55-2.55-6.38-3.83-11.49-3.83s-11.49.85-18.72,2.13l.43,5.1,2.98-.43c6.81-.85,11.91-1.28,16.16-1.28,2.55,0,4.68.85,6.38,2.55s2.55,4.25,2.55,8.08v4.68l-16.59,1.7c-5.1.43-8.51,2.13-11.06,4.25-2.13,2.55-3.4,5.96-3.4,11.06,0,4.68,1.28,8.51,3.4,11.49,2.13,2.55,5.53,3.83,9.78,3.83,5.96,0,11.49-1.28,17.44-3.83v2.98h5.53v-35.73c.43-5.96-.85-9.78-3.4-12.76ZM569.16,162.5c-1.7.43-3.83,1.28-6.81,1.7-2.98.43-5.53.85-7.66.85-5.53,0-8.08-3.4-8.08-10.21,0-2.98.85-5.53,2.13-7.23s3.83-2.55,6.81-2.98l15.74-1.7v18.72l-2.13.85Z"></path></svg>